Coordinates
version=1
nRows=24
nColumns=24
inDegrees=yes

Units are S.I. units (second, meters, Newtons, ...)
Angles are in degrees.

endheader
time	pelvis_tilt	pelvis_list	pelvis_rotation	pelvis_tx	pelvis_ty	pelvis_tz	hip_flexion_r	hip_adduction_r	hip_rotation_r	knee_angle_r	ankle_angle_r	subtalar_angle_r	mtp_angle_r	hip_flexion_l	hip_adduction_l	hip_rotation_l	knee_angle_l	ankle_angle_l	subtalar_angle_l	mtp_angle_l	lumbar_extension	lumbar_bending	lumbar_rotation
      2.46000000	     50.18538905	      1.48430972	     -1.97759872	      0.75294360	      0.96497473	     -0.27403839	     16.02242237	    -13.35574065	      7.14382569	    -61.79300619	      6.61926572	     15.86593193	    -34.43301014	     17.37557933	     -2.25787825	      2.51390338	    -23.90416319	      0.80734002	     13.27177785	    -19.65751745	      0.00000000	      0.00000000	      0.00000000
      2.47000000	     50.22103510	      1.51031033	     -1.99497293	      0.75285597	      0.96498157	     -0.27401628	     16.01310030	    -13.38449048	      7.19367289	    -61.81358928	      6.61839954	     15.82947994	    -34.66624632	     17.37721344	     -1.96441913	      2.53878143	    -24.26697172	      0.91557556	     13.75690736	    -19.62006465	      0.00000000	      0.00000000	      0.00000000
      2.48000000	     50.26894255	      1.53140242	     -2.00538780	      0.75278903	      0.96498798	     -0.27403605	     15.97758019	    -13.41567787	      7.23563765	    -61.83119030	      6.69767512	     15.78670230	    -34.96021262	     17.32781633	     -1.69655618	      2.47246707	    -24.73671754	      1.00833828	     14.24710278	    -19.52048239	      0.00000000	      0.00000000	      0.00000000
      2.49000000	     50.32881360	      1.54664501	     -2.01540772	      0.75276502	      0.96505492	     -0.27409896	     15.90047351	    -13.45233646	      7.26389527	    -61.82207057	      6.87536248	     15.72601456	    -35.33793294	     17.22449278	     -1.45737518	      2.31224009	    -25.31693105	      1.08526793	     14.73369693	    -19.40846010	      0.00000000	      0.00000000	      0.00000000
      2.50000000	     50.39958255	      1.55707984	     -2.03525783	      0.75275884	      0.96524858	     -0.27416981	     15.77446248	    -13.49545141	      7.27352649	    -61.76278757	      7.14810362	     15.64050656	    -35.80017353	     17.07013854	     -1.24926279	      2.06065653	    -26.01027740	      1.15090632	     15.20694470	    -19.33274728	      0.00000000	      0.00000000	      0.00000000
      2.51000000	     50.48159936	      1.56648569	     -2.07502720	      0.75275113	      0.96552526	     -0.27420834	     15.60399159	    -13.54096769	      7.26252685	    -61.64255024	      7.48518687	     15.53237633	    -36.31956012	     16.87240461	     -1.07475274	      1.72649059	    -26.81630006	      1.21339432	     15.65584654	    -19.33324282	      0.00000000	      0.00000000	      0.00000000
      2.52000000	     50.57543713	      1.57789631	     -2.13824215	      0.75279286	      0.96567146	     -0.27422524	     15.40541094	    -13.58042205	      7.23523649	    -61.47580620	      7.82927327	     15.41471441	    -36.84137027	     16.63931416	     -0.93790035	      1.32374373	    -27.73194781	      1.28184390	     16.06852363	    -19.43603068	      0.00000000	      0.00000000	      0.00000000
      2.53000000	     50.67866459	      1.58663586	     -2.21606242	      0.75294463	      0.96552613	     -0.27428519	     15.20342368	    -13.60606774	      7.20540032	    -61.30641209	      8.10689918	     15.30914617	    -37.29123617	     16.37520441	     -0.84484063	      0.86911834	    -28.75453519	      1.36312083	     16.43341624	    -19.65152849	      0.00000000	      0.00000000	      0.00000000
      2.54000000	     50.78475017	      1.57740249	     -2.28907955	      0.75313787	      0.96532546	     -0.27440496	     15.02463360	    -13.61588672	      7.19358918	    -61.19471719	      8.24936339	     15.23946362	    -37.58846893	     16.08208956	     -0.80200528	      0.37920276	    -29.88528088	      1.45910128	     16.74128792	    -19.97542854	      0.00000000	      0.00000000	      0.00000000
      2.55000000	     50.88578674	      1.53550458	     -2.34075131	      0.75324298	      0.96549302	     -0.27451037	     14.88946382	    -13.61090123	      7.21509664	    -61.18752065	      8.21875175	     15.22350593	    -37.66236536	     15.76666736	     -0.81272760	     -0.13132807	    -31.13150942	      1.56515844	     16.98750012	    -20.39176509	      0.00000000	      0.00000000	      0.00000000
      2.56000000	     50.97601635	      1.46402557	     -2.37227181	      0.75330132	      0.96598255	     -0.27455655	     14.80547272	    -13.58819507	      7.26711153	    -61.28980994	      8.02616569	     15.26688719	    -37.46796271	     15.44651129	     -0.87532010	     -0.64982667	    -32.50660441	      1.66998894	     17.17363147	    -20.87729191	      0.00000000	      0.00000000	      0.00000000
      2.57000000	     51.05284975	      1.38229295	     -2.40093179	      0.75346410	      0.96633744	     -0.27458082	     14.76645460	    -13.54344831	      7.33142964	    -61.46402526	      7.72891734	     15.36152480	    -36.99745286	     15.14860092	     -0.98458579	     -1.16442813	    -34.02747874	      1.75664231	     17.30760115	    -21.40636429	      0.00000000	      0.00000000	      0.00000000
      2.58000000	     51.11488509	      1.30679142	     -2.44329863	      0.75373981	      0.96636673	     -0.27461446	     14.75764768	    -13.48028149	      7.39029339	    -61.65640061	      7.40738214	     15.48941442	    -36.28417758	     14.89947396	     -1.13467207	     -1.66272693	    -35.71001629	      1.80478994	     17.40210415	    -21.95562536	      0.00000000	      0.00000000	      0.00000000
      2.59000000	     51.15955140	      1.24013536	     -2.50277813	      0.75401395	      0.96625682	     -0.27464841	     14.76263002	    -13.41081050	      7.43677232	    -61.82515120	      7.13586037	     15.62936483	    -35.39808703	     14.71405426	     -1.32028450	     -2.13150753	    -37.56355043	      1.79416805	     17.47197036	    -22.50791680	      0.00000000	      0.00000000	      0.00000000
      2.60000000	     51.18410456	      1.17614892	     -2.57093215	      0.75423061	      0.96619133	     -0.27468051	     14.76865564	    -13.34721907	      7.47269791	    -61.95299343	      6.96122218	     15.76325966	    -34.43395081	     14.59192104	     -1.53685447	     -2.55741417	    -39.58582147	      1.70868287	     17.53136264	    -23.05490099	      0.00000000	      0.00000000	      0.00000000
      2.61000000	     51.18926633	      1.10935726	     -2.63598773	      0.75443939	      0.96619257	     -0.27473616	     14.76971635	    -13.29506732	      7.50148261	    -62.04399118	      6.89527862	     15.87936093	    -33.49519447	     14.52201806	     -1.78102918	     -2.92803672	    -41.76037369	      1.54041968	     17.59145641	    -23.59793690	      0.00000000	      0.00000000	      0.00000000
      2.62000000	     51.17994678	      1.03914004	     -2.68977501	      0.75470676	      0.96620740	     -0.27483395	     14.76660515	    -13.25279935	      7.52334053	    -62.11270492	      6.92007877	     15.97224235	    -32.67683256	     14.48935756	     -2.05054825	     -3.23324200	    -44.05808691	      1.29276196	     17.65885569	    -24.14694656	      0.00000000	      0.00000000	      0.00000000
      2.63000000	     51.16162928	      0.96821162	     -2.72955682	      0.75503117	      0.96618547	     -0.27495196	     14.76436529	    -13.21522398	      7.53506629	    -62.17379054	      7.00112636	     16.04067637	    -32.05087184	     14.47913848	     -2.34331164	     -3.46612288	    -46.44235582	      0.98167030	     17.73494035	    -24.71744436	      0.00000000	      0.00000000	      0.00000000
      2.64000000	     51.13748715	      0.89990335	     -2.75590926	      0.75535405	      0.96611689	     -0.27505203	     14.76936776	    -13.17776699	      7.53286054	    -62.23640416	      7.10217823	     16.08530636	    -31.65679338	     14.47908098	     -2.65746064	     -3.62262609	    -48.87555594	      0.63394607	     17.81665328	    -25.32648859	      0.00000000	      0.00000000	      0.00000000
      2.65000000	     51.10866111	      0.83623252	     -2.76970086	      0.75562305	      0.96604571	     -0.27512761	     14.78717972	    -13.13918904	      7.51537814	    -62.30368226	      7.19644110	     16.10731280	    -31.49843929	     14.48107350	     -2.99173399	     -3.70053731	    -51.32561104	      0.28183904	     17.89913176	    -25.98873490	      0.00000000	      0.00000000	      0.00000000
      2.66000000	     51.07544462	      0.77656171	     -2.77051899	      0.75583158	      0.96600920	     -0.27520107	     14.82074709	    -13.10150003	      7.48473100	    -62.37497745	      7.27159427	     16.10825949	    -31.54720908	     14.48149901	     -3.34384733	     -3.69959073	    -53.77263807	     -0.04459456	     17.97918324	    -26.71364554	      0.00000000	      0.00000000	      0.00000000
      2.67000000	     51.03829989	      0.71874252	     -2.75735694	      0.75601594	      0.96595444	     -0.27529314	     14.86882666	    -13.06802903	      7.44542189	    -62.44814168	      7.32880955	     16.09057493	    -31.75030732	     14.48066954	     -3.70918750	     -3.62237883	    -56.21386926	     -0.32383913	     18.05721407	    -27.50428085	      0.00000000	      0.00000000	      0.00000000
      2.68000000	     50.99918393	      0.66280808	     -2.73101176	      0.75621415	      0.96576838	     -0.27541463	     14.92537751	    -13.04178914	      7.40263364	    -62.52076387	      7.37776775	     16.05800622	    -32.04207656	     14.48262252	     -4.08238866	     -3.47450867	    -58.66309663	     -0.54459330	     18.13622420	    -28.35749985	      0.00000000	      0.00000000	      0.00000000
      2.69000000	     50.96260609	      0.61317665	     -2.69628256	      0.75641110	      0.96544273	     -0.27556107	     14.98081679	    -13.02486745	      7.36078349	    -62.59101443	      7.43022713	     16.01574762	    -32.35617374	     14.49494058	     -4.45979977	     -3.26382141	    -61.14142045	     -0.70174132	     18.21872099	    -29.26504392	      0.00000000	      0.00000000	      0.00000000
